<?xml version="1.0" encoding="UTF-8"?><svg id="Layer_1" xmlns="http://www.w3.org/2000/svg" viewBox="0 0 290.38 225.54"><defs><style>.cls-1{fill:#fe4000;}</style></defs><path class="cls-1" d="M170.59,166.98c-5.01,0-10.1-.77-15.12-1.53-3.78-.57-7.69-1.16-11.39-1.37-4.48-.25-9.07.09-13.51.43-11.08.84-22.53,1.71-31.92-7.03-6.36-5.91-7.73-10.93-10-19.25-1.5-5.5-3.55-13.03-7.92-23.79-5.42-13.37-10.63-22.46-14.43-29.11-5.42-9.47-8.69-15.19-5.43-21.83,2.97-6.04,11.26-5.14,22.73-3.9,8.6.93,19.3,2.09,31.14.93,17.58-1.73,29.48.09,38.17,1.42,3.39.52,6.32.97,8.86,1.09,10.44.49,22.69-1.07,33.51-2.45,19.55-2.49,34.98-4.46,36.77,5.41.54,2.98-.66,5.29-1.54,6.98l-.06.11c-5.77,11.08-7.37,18.2-9.07,25.73-1.93,8.58-3.94,17.44-11.72,32.66l-1.02,2c-8.41,16.45-11.89,23.26-20.82,28.94-5.45,3.46-11.28,4.55-17.22,4.55ZM140.81,158.43c1.19,0,2.39.03,3.59.1,3.96.23,8,.84,11.91,1.43,10.4,1.57,20.23,3.06,28.53-2.21,7.66-4.87,10.71-10.83,18.86-26.78l1.03-2.01c7.46-14.6,9.39-23.12,11.25-31.36,1.78-7.89,3.46-15.35,9.56-27.07l.06-.11c.75-1.44,1.19-2.38,1-3.42-.85-4.69-16.66-2.67-30.6-.89-11.04,1.41-23.55,3-34.47,2.49-2.82-.13-5.89-.6-9.44-1.15-8.4-1.29-19.9-3.05-36.79-1.38-12.41,1.22-23.43.03-32.28-.93-8.53-.92-15.89-1.72-17.15.83h0c-1.87,3.8-.1,7.24,5.27,16.62,3.88,6.78,9.2,16.06,14.76,29.78,4.49,11.07,6.59,18.78,8.13,24.41,2.21,8.11,3.22,11.82,8.42,16.65,7.62,7.08,16.93,6.37,27.72,5.55,3.48-.26,7.04-.53,10.66-.53Z"/><path class="cls-1" d="M207.69,81.52l-31.1,64.69c-.46.95-1.43,1.56-2.49,1.57l-53.97.2h0c-1.07,0-2.05-.62-2.51-1.6-5.02-10.69-10.97-21.64-16.71-32.24-5.77-10.67-11.75-21.7-16.84-32.53-.43-.92-.33-1.99.26-2.81.53-.72,1.36-1.15,2.25-1.15.11,0,.22,0,.33.02,19.34,2.33,39.02,3.52,58.5,3.52h1.05c19.45-.04,39.1-1.26,58.41-3.63.11-.02.22-.03.33-.03.89,0,1.73.43,2.26,1.17.59.82.68,1.91.24,2.81Z"/></svg>